<svg viewBox="0 0 40 25" xmlns="http://www.w3.org/2000/svg" xmlns:xlink="http://www.w3.org/1999/xlink" width="40.000000" height="25.000000" fill="none" clip-path="url(#clipPath_1)" customFrame="url(#clipPath_1)">
    <defs>
        <clipPath id="clipPath_1">
            <rect width="40.000000" height="25.000000" x="0.000000" y="0.000000" rx="2.000000" fill="rgb(255,255,255)" />
        </clipPath>
    </defs>
    <rect id="Flag_of_the_United_States (1) 1" width="40.000000" height="25.000000" x="0.000000" y="0.000000" rx="2.000000" />
    <path id="Форма 4" d="M0 0L40 0L40 25L0 25" fill="rgb(179,25,66)" fill-rule="nonzero" />
    <path id="Форма 5" d="M0 2.77777L40 2.77777M40 6.66666L0 6.66666M0 10.5555L40 10.5555M40 14.4444L0 14.4444M0 18.3333L40 18.3333M40 22.2222L0 22.2222" stroke="rgb(255,255,255)" stroke-width="1.60000002" />
    <path id="Форма 6" d="M0 0L16 0L16 13.4615L0 13.4615" fill="rgb(10,49,97)" fill-rule="nonzero" />
    <g id="Сочетание 1">
        <g id="s18">
            <g id="s9">
                <g id="s5">
                    <g id="s4">
                        <path id="s" d="M1.33335 0.576935L1.71411 1.96849L0.717285 1.10846L1.94942 1.10846L0.952603 1.96849L1.33335 0.576935Z" fill="rgb(255,255,255)" fill-rule="nonzero" />
                        <path id="s" d="M1.33335 3.26923L1.71411 4.66078L0.717285 3.80075L1.94942 3.80075L0.952603 4.66078L1.33335 3.26923Z" fill="rgb(255,255,255)" fill-rule="nonzero" />
                        <path id="s" d="M1.33335 5.96155L1.71411 7.3531L0.717285 6.49307L1.94942 6.49307L0.952603 7.3531L1.33335 5.96155Z" fill="rgb(255,255,255)" fill-rule="nonzero" />
                        <path id="s" d="M1.33335 8.65384L1.71411 10.0454L0.717285 9.18536L1.94942 9.18536L0.952603 10.0454L1.33335 8.65384Z" fill="rgb(255,255,255)" fill-rule="nonzero" />
                    </g>
                    <path id="s" d="M1.33335 11.3462L1.71411 12.7377L0.717285 11.8777L1.94942 11.8777L0.952603 12.7377L1.33335 11.3462Z" fill="rgb(255,255,255)" fill-rule="nonzero" />
                </g>
                <g id="s4">
                    <path id="s" d="M2.66661 1.9231L3.04736 3.31465L2.05054 2.45462L3.28267 2.45462L2.28585 3.31465L2.66661 1.9231Z" fill="rgb(255,255,255)" fill-rule="nonzero" />
                    <path id="s" d="M2.66661 4.61539L3.04736 6.00694L2.05054 5.14691L3.28267 5.14691L2.28585 6.00694L2.66661 4.61539Z" fill="rgb(255,255,255)" fill-rule="nonzero" />
                    <path id="s" d="M2.66661 7.30771L3.04736 8.69926L2.05054 7.83923L3.28267 7.83923L2.28585 8.69926L2.66661 7.30771Z" fill="rgb(255,255,255)" fill-rule="nonzero" />
                    <path id="s" d="M2.66661 10L3.04736 11.3916L2.05054 10.5315L3.28267 10.5315L2.28585 11.3916L2.66661 10Z" fill="rgb(255,255,255)" fill-rule="nonzero" />
                </g>
            </g>
            <g id="s9">
                <g id="s5">
                    <g id="s4">
                        <path id="s" d="M3.99998 0.576935L4.38073 1.96849L3.38391 1.10846L4.61605 1.10846L3.61923 1.96849L3.99998 0.576935Z" fill="rgb(255,255,255)" fill-rule="nonzero" />
                        <path id="s" d="M3.99998 3.26923L4.38073 4.66078L3.38391 3.80075L4.61605 3.80075L3.61923 4.66078L3.99998 3.26923Z" fill="rgb(255,255,255)" fill-rule="nonzero" />
                        <path id="s" d="M3.99998 5.96155L4.38073 7.3531L3.38391 6.49307L4.61605 6.49307L3.61923 7.3531L3.99998 5.96155Z" fill="rgb(255,255,255)" fill-rule="nonzero" />
                        <path id="s" d="M3.99998 8.65384L4.38073 10.0454L3.38391 9.18536L4.61605 9.18536L3.61923 10.0454L3.99998 8.65384Z" fill="rgb(255,255,255)" fill-rule="nonzero" />
                    </g>
                    <path id="s" d="M3.99998 11.3462L4.38073 12.7377L3.38391 11.8777L4.61605 11.8777L3.61923 12.7377L3.99998 11.3462Z" fill="rgb(255,255,255)" fill-rule="nonzero" />
                </g>
                <g id="s4">
                    <path id="s" d="M5.33335 1.9231L5.71411 3.31465L4.71729 2.45462L5.94942 2.45462L4.9526 3.31465L5.33335 1.9231Z" fill="rgb(255,255,255)" fill-rule="nonzero" />
                    <path id="s" d="M5.33335 4.61539L5.71411 6.00694L4.71729 5.14691L5.94942 5.14691L4.9526 6.00694L5.33335 4.61539Z" fill="rgb(255,255,255)" fill-rule="nonzero" />
                    <path id="s" d="M5.33335 7.30771L5.71411 8.69926L4.71729 7.83923L5.94942 7.83923L4.9526 8.69926L5.33335 7.30771Z" fill="rgb(255,255,255)" fill-rule="nonzero" />
                    <path id="s" d="M5.33335 10L5.71411 11.3916L4.71729 10.5315L5.94942 10.5315L4.9526 11.3916L5.33335 10Z" fill="rgb(255,255,255)" fill-rule="nonzero" />
                </g>
            </g>
        </g>
        <g id="s18">
            <g id="s9">
                <g id="s5">
                    <g id="s4">
                        <path id="s" d="M6.66661 0.576935L7.04736 1.96849L6.05054 1.10846L7.28268 1.10846L6.28585 1.96849L6.66661 0.576935Z" fill="rgb(255,255,255)" fill-rule="nonzero" />
                        <path id="s" d="M6.66661 3.26923L7.04736 4.66078L6.05054 3.80075L7.28268 3.80075L6.28585 4.66078L6.66661 3.26923Z" fill="rgb(255,255,255)" fill-rule="nonzero" />
                        <path id="s" d="M6.66661 5.96155L7.04736 7.3531L6.05054 6.49307L7.28268 6.49307L6.28585 7.3531L6.66661 5.96155Z" fill="rgb(255,255,255)" fill-rule="nonzero" />
                        <path id="s" d="M6.66661 8.65384L7.04736 10.0454L6.05054 9.18536L7.28268 9.18536L6.28585 10.0454L6.66661 8.65384Z" fill="rgb(255,255,255)" fill-rule="nonzero" />
                    </g>
                    <path id="s" d="M6.66661 11.3462L7.04736 12.7377L6.05054 11.8777L7.28268 11.8777L6.28585 12.7377L6.66661 11.3462Z" fill="rgb(255,255,255)" fill-rule="nonzero" />
                </g>
                <g id="s4">
                    <path id="s" d="M7.99998 1.9231L8.38073 3.31465L7.38391 2.45462L8.61605 2.45462L7.61923 3.31465L7.99998 1.9231Z" fill="rgb(255,255,255)" fill-rule="nonzero" />
                    <path id="s" d="M7.99998 4.61539L8.38073 6.00694L7.38391 5.14691L8.61605 5.14691L7.61923 6.00694L7.99998 4.61539Z" fill="rgb(255,255,255)" fill-rule="nonzero" />
                    <path id="s" d="M7.99998 7.30771L8.38073 8.69926L7.38391 7.83923L8.61605 7.83923L7.61923 8.69926L7.99998 7.30771Z" fill="rgb(255,255,255)" fill-rule="nonzero" />
                    <path id="s" d="M7.99998 10L8.38073 11.3916L7.38391 10.5315L8.61605 10.5315L7.61923 11.3916L7.99998 10Z" fill="rgb(255,255,255)" fill-rule="nonzero" />
                </g>
            </g>
            <g id="s9">
                <g id="s5">
                    <g id="s4">
                        <path id="s" d="M9.33335 0.576935L9.71411 1.96849L8.71729 1.10846L9.94942 1.10846L8.9526 1.96849L9.33335 0.576935Z" fill="rgb(255,255,255)" fill-rule="nonzero" />
                        <path id="s" d="M9.33335 3.26923L9.71411 4.66078L8.71729 3.80075L9.94942 3.80075L8.9526 4.66078L9.33335 3.26923Z" fill="rgb(255,255,255)" fill-rule="nonzero" />
                        <path id="s" d="M9.33335 5.96155L9.71411 7.3531L8.71729 6.49307L9.94942 6.49307L8.9526 7.3531L9.33335 5.96155Z" fill="rgb(255,255,255)" fill-rule="nonzero" />
                        <path id="s" d="M9.33335 8.65384L9.71411 10.0454L8.71729 9.18536L9.94942 9.18536L8.9526 10.0454L9.33335 8.65384Z" fill="rgb(255,255,255)" fill-rule="nonzero" />
                    </g>
                    <path id="s" d="M9.33335 11.3462L9.71411 12.7377L8.71729 11.8777L9.94942 11.8777L8.9526 12.7377L9.33335 11.3462Z" fill="rgb(255,255,255)" fill-rule="nonzero" />
                </g>
                <g id="s4">
                    <path id="s" d="M10.6666 1.9231L11.0474 3.31465L10.0505 2.45462L11.2827 2.45462L10.2859 3.31465L10.6666 1.9231Z" fill="rgb(255,255,255)" fill-rule="nonzero" />
                    <path id="s" d="M10.6666 4.61539L11.0474 6.00694L10.0505 5.14691L11.2827 5.14691L10.2859 6.00694L10.6666 4.61539Z" fill="rgb(255,255,255)" fill-rule="nonzero" />
                    <path id="s" d="M10.6666 7.30771L11.0474 8.69926L10.0505 7.83923L11.2827 7.83923L10.2859 8.69926L10.6666 7.30771Z" fill="rgb(255,255,255)" fill-rule="nonzero" />
                    <path id="s" d="M10.6666 10L11.0474 11.3916L10.0505 10.5315L11.2827 10.5315L10.2859 11.3916L10.6666 10Z" fill="rgb(255,255,255)" fill-rule="nonzero" />
                </g>
            </g>
        </g>
        <g id="s9">
            <g id="s5">
                <g id="s4">
                    <path id="s" d="M12 0.576935L12.3807 1.96849L11.3839 1.10846L12.616 1.10846L11.6192 1.96849L12 0.576935Z" fill="rgb(255,255,255)" fill-rule="nonzero" />
                    <path id="s" d="M12 3.26923L12.3807 4.66078L11.3839 3.80075L12.616 3.80075L11.6192 4.66078L12 3.26923Z" fill="rgb(255,255,255)" fill-rule="nonzero" />
                    <path id="s" d="M12 5.96155L12.3807 7.3531L11.3839 6.49307L12.616 6.49307L11.6192 7.3531L12 5.96155Z" fill="rgb(255,255,255)" fill-rule="nonzero" />
                    <path id="s" d="M12 8.65384L12.3807 10.0454L11.3839 9.18536L12.616 9.18536L11.6192 10.0454L12 8.65384Z" fill="rgb(255,255,255)" fill-rule="nonzero" />
                </g>
                <path id="s" d="M12 11.3462L12.3807 12.7377L11.3839 11.8777L12.616 11.8777L11.6192 12.7377L12 11.3462Z" fill="rgb(255,255,255)" fill-rule="nonzero" />
            </g>
            <g id="s4">
                <path id="s" d="M13.3334 1.9231L13.7141 3.31465L12.7173 2.45462L13.9494 2.45462L12.9526 3.31465L13.3334 1.9231Z" fill="rgb(255,255,255)" fill-rule="nonzero" />
                <path id="s" d="M13.3334 4.61539L13.7141 6.00694L12.7173 5.14691L13.9494 5.14691L12.9526 6.00694L13.3334 4.61539Z" fill="rgb(255,255,255)" fill-rule="nonzero" />
                <path id="s" d="M13.3334 7.30771L13.7141 8.69926L12.7173 7.83923L13.9494 7.83923L12.9526 8.69926L13.3334 7.30771Z" fill="rgb(255,255,255)" fill-rule="nonzero" />
                <path id="s" d="M13.3334 10L13.7141 11.3916L12.7173 10.5315L13.9494 10.5315L12.9526 11.3916L13.3334 10Z" fill="rgb(255,255,255)" fill-rule="nonzero" />
            </g>
        </g>
        <g id="s5">
            <g id="s4">
                <path id="s" d="M14.6666 0.576935L15.0474 1.96849L14.0505 1.10846L15.2827 1.10846L14.2859 1.96849L14.6666 0.576935Z" fill="rgb(255,255,255)" fill-rule="nonzero" />
                <path id="s" d="M14.6666 3.26923L15.0474 4.66078L14.0505 3.80075L15.2827 3.80075L14.2859 4.66078L14.6666 3.26923Z" fill="rgb(255,255,255)" fill-rule="nonzero" />
                <path id="s" d="M14.6666 5.96155L15.0474 7.3531L14.0505 6.49307L15.2827 6.49307L14.2859 7.3531L14.6666 5.96155Z" fill="rgb(255,255,255)" fill-rule="nonzero" />
                <path id="s" d="M14.6666 8.65384L15.0474 10.0454L14.0505 9.18536L15.2827 9.18536L14.2859 10.0454L14.6666 8.65384Z" fill="rgb(255,255,255)" fill-rule="nonzero" />
            </g>
            <path id="s" d="M14.6666 11.3462L15.0474 12.7377L14.0505 11.8777L15.2827 11.8777L14.2859 12.7377L14.6666 11.3462Z" fill="rgb(255,255,255)" fill-rule="nonzero" />
        </g>
    </g>
</svg>